<svg width="154" height="154" viewBox="0 0 154 154" fill="none" xmlns="http://www.w3.org/2000/svg">
<mask id="mask0_459_250" style="mask-type:alpha" maskUnits="userSpaceOnUse" x="0" y="0" width="154" height="154">
<rect width="154" height="154" fill="#D9D9D9"/>
</mask>
<g mask="url(#mask0_459_250)">
<path d="M109.083 134.75C103.736 134.75 99.191 132.878 95.4479 129.135C91.7049 125.392 89.8333 120.847 89.8333 115.5C89.8333 110.152 91.7049 105.607 95.4479 101.864C99.191 98.1212 103.736 96.2497 109.083 96.2497C114.431 96.2497 118.976 98.1212 122.719 101.864C126.462 105.607 128.333 110.152 128.333 115.5C128.333 120.847 126.462 125.392 122.719 129.135C118.976 132.878 114.431 134.75 109.083 134.75ZM104.271 89.833V76.9997H113.896V89.833H104.271ZM104.271 154V141.166H113.896V154H104.271ZM130.74 100.581L123.842 93.8434L132.985 84.6997L139.723 91.5976L130.74 100.581ZM85.1812 146.139L78.4438 139.402L87.5875 130.258L94.325 136.996L85.1812 146.139ZM134.75 120.312V110.687H147.583V120.312H134.75ZM70.5833 120.312V110.687H83.4167V120.312H70.5833ZM132.985 146.139L124.002 136.996L130.74 130.258L139.883 139.241L132.985 146.139ZM87.4271 100.741L78.4438 91.5976L85.1812 84.8601L94.325 93.8434L87.4271 100.741ZM32.0833 141.166C28.5542 141.166 25.5319 139.911 23.0166 137.4C20.5055 134.884 19.25 131.862 19.25 128.333V38.4997C19.25 34.9705 20.5055 31.9504 23.0166 29.4393C25.5319 26.924 28.5542 25.6663 32.0833 25.6663H38.5V12.833H51.3333V25.6663H102.667V12.833H115.5V25.6663H121.917C125.446 25.6663 128.468 26.924 130.983 29.4393C133.494 31.9504 134.75 34.9705 134.75 38.4997V64.1663H32.0833V128.333H57.75V141.166H32.0833ZM32.0833 51.333H121.917V38.4997H32.0833V51.333Z" fill="#424242"/>
</g>
</svg>
