<svg width="158" height="158" viewBox="0 0 158 158" fill="none" xmlns="http://www.w3.org/2000/svg">
<mask id="mask0_485_293" style="mask-type:alpha" maskUnits="userSpaceOnUse" x="0" y="0" width="158" height="158">
<rect width="158" height="158" fill="#D9D9D9"/>
</mask>
<g mask="url(#mask0_485_293)">
<path d="M125.083 59.2502L116.854 41.146L98.7497 32.9168L116.854 24.6877L125.083 6.5835L133.312 24.6877L151.416 32.9168L133.312 41.146L125.083 59.2502ZM125.083 151.417L116.854 133.313L98.7497 125.083L116.854 116.854L125.083 98.7502L133.312 116.854L151.416 125.083L133.312 133.313L125.083 151.417ZM59.2497 131.667L42.7913 95.4585L6.58301 79.0002L42.7913 62.5418L59.2497 26.3335L75.708 62.5418L111.916 79.0002L75.708 95.4585L59.2497 131.667ZM59.2497 99.7377L65.833 85.5835L79.9872 79.0002L65.833 72.4168L59.2497 58.2627L52.6663 72.4168L38.5122 79.0002L52.6663 85.5835L59.2497 99.7377Z" fill="#424242"/>
</g>
</svg>
